<?xml version="1.0" standalone="no"?>
<!DOCTYPE svg PUBLIC "-//W3C//DTD SVG 20010904//EN"
 "http://www.w3.org/TR/2001/REC-SVG-20010904/DTD/svg10.dtd">
<svg version="1.0" xmlns="http://www.w3.org/2000/svg"
 width="512.000000pt" height="512.000000pt" viewBox="0 0 512.000000 512.000000"
 preserveAspectRatio="xMidYMid meet">
<metadata>
Created by potrace 1.16, written by Peter Selinger 2001-2019
</metadata>
<g transform="translate(0.000000,512.000000) scale(0.100000,-0.100000)"
fill="#000000" stroke="none">
<path d="M2155 4465 c-173 -38 -304 -120 -432 -271 -30 -35 -64 -69 -76 -76
-12 -6 -80 -15 -152 -19 -230 -14 -364 -68 -501 -204 -64 -63 -90 -98 -123
-165 -93 -191 -94 -393 -1 -585 113 -233 312 -369 735 -499 116 -35 255 -78
310 -95 105 -32 145 -53 145 -76 0 -23 -34 -26 -177 -16 -173 14 -461 14 -573
1 -122 -14 -233 -45 -330 -93 -68 -33 -102 -58 -170 -127 -131 -131 -184 -258
-183 -440 0 -189 65 -342 203 -481 90 -91 163 -138 285 -184 86 -32 95 -40
145 -131 83 -151 194 -257 345 -329 206 -99 424 -101 620 -7 144 70 239 164
315 314 100 195 122 436 75 822 -15 123 -14 166 5 166 17 0 164 -241 235 -385
123 -251 201 -498 241 -764 26 -174 44 -182 218 -96 126 61 146 78 146 120 0
64 -155 413 -280 630 -100 173 -253 397 -357 519 -35 42 -42 66 -19 66 8 0 57
-33 108 -73 145 -113 288 -219 348 -259 205 -134 396 -200 580 -200 186 -1
340 62 467 188 140 139 214 361 184 551 -17 111 -47 193 -102 284 -87 142 -83
124 -49 221 39 111 50 195 39 293 -16 154 -64 258 -170 369 -225 238 -594 251
-885 33 -127 -96 -245 -236 -444 -527 -114 -167 -174 -240 -197 -240 -7 0 -13
7 -13 15 0 8 43 115 96 237 113 261 165 403 202 548 23 91 26 126 27 260 0
169 -9 217 -66 337 -85 178 -274 327 -465 368 -84 18 -228 18 -309 0z"/>
</g>
</svg>
